<svg width="132" height="66" viewBox="0 0 132 66" fill="none" xmlns="http://www.w3.org/2000/svg">
<path d="M29.1192 24.4068C27.6144 24.0108 25.5948 23.7072 23.2716 23.9712C22.6116 24.0372 22.0044 24.156 21.4896 24.2616C21.45 24.1296 21.3972 24.0108 21.318 23.9052C19.14 21.1068 16.4076 18.9288 13.4112 17.6352C13.2 17.5428 12.9756 17.4504 12.7248 17.3448C12.7248 17.3184 12.738 17.292 12.738 17.2788C12.8964 16.434 13.464 13.3584 15.8532 12.2892C16.9752 11.7876 18.0312 11.9196 18.6912 12.012C21.582 12.408 23.4564 14.4936 24.7764 15.9984C27.3372 18.8892 28.5384 22.0836 29.1192 24.4068Z" fill="#2A2760"/>
<path d="M20.0904 25.1724C20.064 25.1724 20.0508 25.1856 20.0244 25.1856C20.0244 25.1856 20.0244 25.1856 20.0112 25.1856C18.4404 25.7136 16.368 26.532 14.3088 27.8256C13.794 28.1424 12.606 28.9344 11.3784 30.0168C10.7316 30.5844 10.0716 31.2312 9.8472 31.4556C9.4512 31.8516 9.1212 32.1948 8.8704 32.4588C8.382 32.1288 8.1444 31.9704 8.0124 31.8912C7.986 31.878 7.9332 31.8384 7.8408 31.7724C7.8408 31.7724 7.6824 31.6668 7.524 31.548C7.2996 31.3896 6.5868 30.7824 6.3096 30.5052C3.102 27.4692 2.4288 24.6048 2.4288 24.6048C2.244 23.7204 1.5708 20.526 3.3528 18.546C4.1844 17.622 5.214 17.3316 5.8608 17.16C5.9532 17.1336 6.0588 17.1072 6.1512 17.094C6.2436 17.0676 6.3492 17.0544 6.4416 17.0412C6.6396 17.0016 6.8244 16.9884 7.0224 16.962C7.1148 16.9488 7.2072 16.9488 7.3128 16.9488C7.6032 16.9356 7.8804 16.9488 8.1576 16.962C9.24 17.0412 10.2564 17.358 11.154 17.7276C11.2596 17.7672 11.352 17.8068 11.4444 17.8596C11.6424 17.9388 11.8272 18.0312 12.012 18.1236C12.144 18.1896 12.276 18.2556 12.408 18.3216C12.4872 18.3612 12.5532 18.4008 12.6324 18.4404C12.7644 18.5064 12.8964 18.5856 13.0284 18.6516C16.5792 20.5128 18.8232 23.2584 20.0904 25.1724Z" fill="#2A2760"/>
<path d="M2.508 42.0948C2.8116 42.438 3.3792 43.0056 4.2768 43.3752C5.61 43.9296 6.8244 43.7052 7.2732 43.5996C7.8408 44.2332 8.3952 44.616 8.7648 44.8404C10.0452 45.606 11.3256 45.8172 12.6456 45.8964C13.2264 45.9228 13.794 45.9624 14.3748 45.9888C15.0744 45.9492 15.774 45.9096 16.4868 45.87C17.1204 45.7776 17.7408 45.6852 18.3744 45.5928C16.698 45.1704 15.51 44.616 14.7972 44.2332C13.8996 43.7448 13.3848 43.3356 13.1736 43.1508C12.5532 42.636 12.1836 42.174 12.1044 42.0552C11.88 41.778 11.7084 41.5008 11.5764 41.2632C11.4312 41.0124 11.2728 40.7352 11.1408 40.3524C10.9956 39.93 10.9428 39.5868 10.89 39.3096C10.8504 39.0588 10.824 38.874 10.824 38.7552C10.7844 38.3064 10.7844 37.9764 10.7844 37.7124C10.7844 37.422 10.7976 37.0524 10.824 36.63C10.8372 36.5376 10.8504 36.4188 10.8636 36.2868C10.8636 36.2868 10.89 36.1152 10.9032 35.9568C11.1408 34.3332 12.1176 32.5116 12.1176 32.5116C12.1176 32.3796 12.1572 32.3136 12.2364 32.3004C12.342 32.0496 12.4608 31.7856 12.5664 31.5348C11.2332 32.3532 7.8144 34.7028 6.8772 38.8344C6.7188 39.5472 6.6396 40.2336 6.6396 40.8672C5.2404 41.2764 3.8808 41.6856 2.508 42.0948Z" fill="#2A2760"/>
<path d="M30.492 41.3952C30.4128 41.448 30.3204 41.5008 30.2412 41.5536C30.228 41.5668 30.2016 41.58 30.1884 41.5932C27.4428 43.2564 24.1824 44.2068 21.1464 44.2464C20.6712 44.0616 19.2984 43.4808 17.9388 42.2136C17.1468 41.4744 16.3548 40.4976 15.7608 39.2304C14.5728 36.7224 14.8236 33.8052 14.8632 33.3828C14.9424 32.5248 15.1668 31.2444 15.774 29.766C15.7872 29.7528 15.8004 29.7396 15.8136 29.7132C15.84 29.6868 15.8664 29.6736 15.8664 29.6736C15.9588 29.6076 16.5396 29.0664 17.4504 28.4856C17.6616 28.3404 17.9652 28.1688 18.3216 27.9708C18.4404 27.9048 18.612 27.8124 18.81 27.7068C18.81 27.7068 19.0608 27.5748 19.3248 27.456C19.6944 27.2844 20.658 26.9016 21.9648 26.4528C20.9484 27.7332 20.5788 28.38 20.4336 28.7496C20.4204 28.8024 20.2884 29.1192 20.1036 29.5944C19.998 29.8848 19.9056 30.1224 19.8396 30.2544C19.1532 32.2872 19.1532 34.5048 19.9056 36.4584C20.9352 39.0984 23.232 40.986 25.9512 41.5932C27.39 41.91 28.9476 41.8704 30.492 41.3952Z" fill="#2A2760"/>
<path d="M23.1792 30.0828C22.9944 31.5876 23.2188 33.1452 23.8656 34.5576C24.9084 36.8412 26.9412 38.4912 29.3436 39.1512C30.1752 39.3756 31.0596 39.4812 31.9572 39.4548C32.4456 39.138 32.9868 38.7156 33.528 38.1744C34.386 37.3428 34.98 36.5112 35.376 35.8248C34.6632 35.9832 33.9636 36.0228 33.2772 35.9568C31.1388 35.7456 29.238 34.4916 28.3404 32.6172C27.8124 31.5216 27.6672 30.294 27.8784 29.106C27.9576 28.644 28.0896 28.1952 28.2612 27.7596C28.314 27.6408 28.3668 27.5088 28.4328 27.39C28.6176 27.0072 28.842 26.6376 29.106 26.2944C29.1192 26.268 29.1456 26.2416 29.1588 26.2284C29.1324 26.2284 29.106 26.2152 29.0796 26.2152C27.7464 25.9776 26.2812 25.8984 24.7896 26.0172C24.3804 26.5848 24.0372 27.1788 23.7732 27.8124C23.694 28.0104 23.6148 28.2084 23.5488 28.4196C23.3772 28.9608 23.2584 29.5152 23.1792 30.0828Z" fill="#2A2760"/>
<path d="M31.02 30.2676C31.02 30.2808 31.0332 30.3072 31.0332 30.3204C31.2048 30.9144 31.4688 31.4424 31.7988 31.9176C32.8812 33.4488 34.6896 34.3332 36.5904 34.2012C36.96 34.1748 37.3296 34.1088 37.7124 34.0032C37.884 33.9504 38.0688 33.8976 38.2272 33.8316C38.5704 33.6996 38.8872 33.5412 39.1776 33.3432C41.1312 32.0892 42.1212 29.6604 41.4612 27.3108C41.1576 26.2284 40.5504 25.3176 39.7584 24.6444C39.9432 24.2484 40.1544 23.628 40.1412 22.8624C40.1148 21.5952 39.4548 19.8924 38.3196 19.7076C37.6992 19.602 36.9204 19.9716 36.7752 20.46C36.63 20.9484 37.2108 21.2916 37.5672 22.2288C37.752 22.704 37.8048 23.166 37.8048 23.5752C37.6332 23.5224 37.4748 23.4828 37.3032 23.4432C37.2636 23.2188 37.1976 22.9944 37.1052 22.7568C36.6564 21.5688 35.4552 20.196 34.32 20.4072C33.6996 20.526 33.0924 21.1332 33.132 21.6348C33.1716 22.1496 33.8316 22.2684 34.4784 23.034C34.6104 23.1924 34.7292 23.364 34.8348 23.5224C34.8084 23.5224 34.7952 23.5356 34.7688 23.5356C32.3136 24.2352 30.7296 26.5188 30.822 28.9608C30.8352 29.4228 30.9012 29.8452 31.02 30.2676Z" fill="#2A2760"/>
<path d="M67.6632 45.2364H63.1752V34.0032H50.8332V45.2364H46.3848V18.9552H50.8332V29.8188H63.1752V18.9552H67.6632V45.2364Z" fill="#2A2760"/>
<path d="M69.5112 40.3392C69.5112 38.808 70.0128 37.5804 71.016 36.6564C72.0192 35.7324 73.3392 35.1384 74.9628 34.9008L79.596 34.188C80.4804 34.0692 80.9292 33.6336 80.9292 32.8944C80.9292 32.076 80.6388 31.416 80.0712 30.9144C79.5036 30.4128 78.6456 30.1488 77.5104 30.1488C76.428 30.1488 75.5568 30.4524 74.91 31.0596C74.2632 31.6668 73.8936 32.4456 73.8012 33.4092L69.8676 32.5248C70.0392 30.888 70.818 29.502 72.204 28.3536C73.59 27.2052 75.3456 26.6244 77.4708 26.6244C80.0844 26.6244 82.0248 27.258 83.2788 28.512C84.5328 29.766 85.1532 31.3896 85.1532 33.3696V42.3456C85.1532 43.5336 85.2324 44.4972 85.3776 45.2364H81.378C81.2592 44.8668 81.1932 44.1012 81.1932 42.9396C80.0052 44.8404 78.1572 45.7908 75.636 45.7908C73.8012 45.7908 72.336 45.2496 71.2008 44.1804C70.0788 43.1112 69.5112 41.8308 69.5112 40.3392ZM76.4544 42.4248C77.7876 42.4248 78.87 42.0552 79.7016 41.3292C80.5332 40.6032 80.9424 39.402 80.9424 37.752V36.9336L76.23 37.6332C74.6196 37.9104 73.8144 38.7156 73.8144 40.0752C73.8144 40.722 74.052 41.2632 74.514 41.7252C74.9892 42.1872 75.636 42.4248 76.4544 42.4248Z" fill="#2A2760"/>
<path d="M87.648 22.8096C87.1068 22.2684 86.8296 21.6084 86.8296 20.8428C86.8296 20.0772 87.1068 19.4172 87.648 18.8628C88.1892 18.3084 88.8492 18.0312 89.6148 18.0312C90.4068 18.0312 91.0668 18.3084 91.6212 18.8496C92.1624 19.3908 92.4396 20.064 92.4396 20.856C92.4396 21.6216 92.1624 22.2816 91.6212 22.8228C91.08 23.364 90.4068 23.6412 89.6148 23.6412C88.836 23.628 88.1892 23.3508 87.648 22.8096ZM91.7532 45.2364H87.4896V27.1788H91.7532V45.2364Z" fill="#2A2760"/>
<path d="M98.6568 45.2364H94.4724V18.4008H98.6964V29.4096C99.1452 28.644 99.8712 27.9972 100.888 27.4824C101.904 26.9676 103.066 26.7036 104.372 26.7036C106.986 26.7036 109.032 27.588 110.51 29.3568C111.976 31.1256 112.715 33.3828 112.715 36.1284C112.715 38.9268 111.936 41.2104 110.392 43.0056C108.847 44.8008 106.788 45.6984 104.214 45.6984C101.64 45.6984 99.792 44.748 98.6568 42.8472V45.2364ZM107.012 40.326C107.91 39.2964 108.359 37.9104 108.359 36.1548C108.359 34.3992 107.91 33.0264 107.026 32.0232C106.141 31.02 104.966 30.5184 103.501 30.5184C102.089 30.5184 100.927 31.02 100.016 32.0232C99.1056 33.0264 98.6436 34.3992 98.6436 36.1548C98.6436 37.884 99.1056 39.27 100.016 40.3128C100.927 41.3556 102.089 41.8704 103.501 41.8704C104.94 41.8572 106.115 41.3556 107.012 40.326Z" fill="#2A2760"/>
<path d="M125.638 43.23C125.215 44.022 124.529 44.6424 123.578 45.078C122.628 45.5268 121.612 45.7512 120.516 45.7512C118.417 45.7512 116.754 45.078 115.526 43.7184C114.299 42.3588 113.692 40.6428 113.692 38.5704V27.192H118.008V37.7916C118.008 39.006 118.298 39.996 118.892 40.7616C119.486 41.5272 120.397 41.91 121.638 41.91C122.852 41.91 123.776 41.5404 124.436 40.8012C125.096 40.062 125.413 39.0852 125.413 37.8708V27.192H129.716V41.9496C129.716 43.032 129.782 44.1408 129.901 45.2496H125.796C125.69 44.6952 125.638 44.022 125.638 43.23Z" fill="#2A2760"/>
</svg>
