<svg width="217" height="99" viewBox="0 0 217 99" fill="none" xmlns="http://www.w3.org/2000/svg">
<rect width="217" height="99" fill="#2A2760"/>
<path d="M72.1192 41.4068C70.6144 41.0108 68.5948 40.7072 66.2716 40.9712C65.6116 41.0372 65.0044 41.156 64.4896 41.2616C64.45 41.1296 64.3972 41.0108 64.318 40.9052C62.14 38.1068 59.4076 35.9288 56.4112 34.6352C56.2 34.5428 55.9756 34.4504 55.7248 34.3448C55.7248 34.3184 55.738 34.292 55.738 34.2788C55.8964 33.434 56.464 30.3584 58.8532 29.2892C59.9752 28.7876 61.0312 28.9196 61.6912 29.012C64.582 29.408 66.4564 31.4936 67.7764 32.9984C70.3372 35.8892 71.5384 39.0836 72.1192 41.4068Z" fill="white"/>
<path d="M63.0904 42.1724C63.064 42.1724 63.0508 42.1856 63.0244 42.1856C63.0244 42.1856 63.0244 42.1856 63.0112 42.1856C61.4404 42.7136 59.368 43.532 57.3088 44.8256C56.794 45.1424 55.606 45.9344 54.3784 47.0168C53.7316 47.5844 53.0716 48.2312 52.8472 48.4556C52.4512 48.8516 52.1212 49.1948 51.8704 49.4588C51.382 49.1288 51.1444 48.9704 51.0124 48.8912C50.986 48.878 50.9332 48.8384 50.8408 48.7724C50.8408 48.7724 50.6824 48.6668 50.524 48.548C50.2996 48.3896 49.5868 47.7824 49.3096 47.5052C46.102 44.4692 45.4288 41.6048 45.4288 41.6048C45.244 40.7204 44.5708 37.526 46.3528 35.546C47.1844 34.622 48.214 34.3316 48.8608 34.16C48.9532 34.1336 49.0588 34.1072 49.1512 34.094C49.2436 34.0676 49.3492 34.0544 49.4416 34.0412C49.6396 34.0016 49.8244 33.9884 50.0224 33.962C50.1148 33.9488 50.2072 33.9488 50.3128 33.9488C50.6032 33.9356 50.8804 33.9488 51.1576 33.962C52.24 34.0412 53.2564 34.358 54.154 34.7276C54.2596 34.7672 54.352 34.8068 54.4444 34.8596C54.6424 34.9388 54.8272 35.0312 55.012 35.1236C55.144 35.1896 55.276 35.2556 55.408 35.3216C55.4872 35.3612 55.5532 35.4008 55.6324 35.4404C55.7644 35.5064 55.8964 35.5856 56.0284 35.6516C59.5792 37.5128 61.8232 40.2584 63.0904 42.1724Z" fill="white"/>
<path d="M45.508 59.0948C45.8116 59.438 46.3792 60.0056 47.2768 60.3752C48.61 60.9296 49.8244 60.7052 50.2732 60.5996C50.8408 61.2332 51.3952 61.616 51.7648 61.8404C53.0452 62.606 54.3256 62.8172 55.6456 62.8964C56.2264 62.9228 56.794 62.9624 57.3748 62.9888C58.0744 62.9492 58.774 62.9096 59.4868 62.87C60.1204 62.7776 60.7408 62.6852 61.3744 62.5928C59.698 62.1704 58.51 61.616 57.7972 61.2332C56.8996 60.7448 56.3848 60.3356 56.1736 60.1508C55.5532 59.636 55.1836 59.174 55.1044 59.0552C54.88 58.778 54.7084 58.5008 54.5764 58.2632C54.4312 58.0124 54.2728 57.7352 54.1408 57.3524C53.9956 56.93 53.9428 56.5868 53.89 56.3096C53.8504 56.0588 53.824 55.874 53.824 55.7552C53.7844 55.3064 53.7844 54.9764 53.7844 54.7124C53.7844 54.422 53.7976 54.0524 53.824 53.63C53.8372 53.5376 53.8504 53.4188 53.8636 53.2868C53.8636 53.2868 53.89 53.1152 53.9032 52.9568C54.1408 51.3332 55.1176 49.5116 55.1176 49.5116C55.1176 49.3796 55.1572 49.3136 55.2364 49.3004C55.342 49.0496 55.4608 48.7856 55.5664 48.5348C54.2332 49.3532 50.8144 51.7028 49.8772 55.8344C49.7188 56.5472 49.6396 57.2336 49.6396 57.8672C48.2404 58.2764 46.8808 58.6856 45.508 59.0948Z" fill="white"/>
<path d="M73.492 58.3952C73.4128 58.448 73.3204 58.5008 73.2412 58.5536C73.228 58.5668 73.2016 58.58 73.1884 58.5932C70.4428 60.2564 67.1824 61.2068 64.1464 61.2464C63.6712 61.0616 62.2984 60.4808 60.9388 59.2136C60.1468 58.4744 59.3548 57.4976 58.7608 56.2304C57.5728 53.7224 57.8236 50.8052 57.8632 50.3828C57.9424 49.5248 58.1668 48.2444 58.774 46.766C58.7872 46.7528 58.8004 46.7396 58.8136 46.7132C58.84 46.6868 58.8664 46.6736 58.8664 46.6736C58.9588 46.6076 59.5396 46.0664 60.4504 45.4856C60.6616 45.3404 60.9652 45.1688 61.3216 44.9708C61.4404 44.9048 61.612 44.8124 61.81 44.7068C61.81 44.7068 62.0608 44.5748 62.3248 44.456C62.6944 44.2844 63.658 43.9016 64.9648 43.4528C63.9484 44.7332 63.5788 45.38 63.4336 45.7496C63.4204 45.8024 63.2884 46.1192 63.1036 46.5944C62.998 46.8848 62.9056 47.1224 62.8396 47.2544C62.1532 49.2872 62.1532 51.5048 62.9056 53.4584C63.9352 56.0984 66.232 57.986 68.9512 58.5932C70.39 58.91 71.9476 58.8704 73.492 58.3952Z" fill="white"/>
<path d="M66.1792 47.0828C65.9944 48.5876 66.2188 50.1452 66.8656 51.5576C67.9084 53.8412 69.9412 55.4912 72.3436 56.1512C73.1752 56.3756 74.0596 56.4812 74.9572 56.4548C75.4456 56.138 75.9868 55.7156 76.528 55.1744C77.386 54.3428 77.98 53.5112 78.376 52.8248C77.6632 52.9832 76.9636 53.0228 76.2772 52.9568C74.1388 52.7456 72.238 51.4916 71.3404 49.6172C70.8124 48.5216 70.6672 47.294 70.8784 46.106C70.9576 45.644 71.0896 45.1952 71.2612 44.7596C71.314 44.6408 71.3668 44.5088 71.4328 44.39C71.6176 44.0072 71.842 43.6376 72.106 43.2944C72.1192 43.268 72.1456 43.2416 72.1588 43.2284C72.1324 43.2284 72.106 43.2152 72.0796 43.2152C70.7464 42.9776 69.2812 42.8984 67.7896 43.0172C67.3804 43.5848 67.0372 44.1788 66.7732 44.8124C66.694 45.0104 66.6148 45.2084 66.5488 45.4196C66.3772 45.9608 66.2584 46.5152 66.1792 47.0828Z" fill="white"/>
<path d="M74.02 47.2676C74.02 47.2808 74.0332 47.3072 74.0332 47.3204C74.2048 47.9144 74.4688 48.4424 74.7988 48.9176C75.8812 50.4488 77.6896 51.3332 79.5904 51.2012C79.96 51.1748 80.3296 51.1088 80.7124 51.0032C80.884 50.9504 81.0688 50.8976 81.2272 50.8316C81.5704 50.6996 81.8872 50.5412 82.1776 50.3432C84.1312 49.0892 85.1212 46.6604 84.4612 44.3108C84.1576 43.2284 83.5504 42.3176 82.7584 41.6444C82.9432 41.2484 83.1544 40.628 83.1412 39.8624C83.1148 38.5952 82.4548 36.8924 81.3196 36.7076C80.6992 36.602 79.9204 36.9716 79.7752 37.46C79.63 37.9484 80.2108 38.2916 80.5672 39.2288C80.752 39.704 80.8048 40.166 80.8048 40.5752C80.6332 40.5224 80.4748 40.4828 80.3032 40.4432C80.2636 40.2188 80.1976 39.9944 80.1052 39.7568C79.6564 38.5688 78.4552 37.196 77.32 37.4072C76.6996 37.526 76.0924 38.1332 76.132 38.6348C76.1716 39.1496 76.8316 39.2684 77.4784 40.034C77.6104 40.1924 77.7292 40.364 77.8348 40.5224C77.8084 40.5224 77.7952 40.5356 77.7688 40.5356C75.3136 41.2352 73.7296 43.5188 73.822 45.9608C73.8352 46.4228 73.9012 46.8452 74.02 47.2676Z" fill="white"/>
<path d="M110.663 62.2364H106.175V51.0032H93.8332V62.2364H89.3848V35.9552H93.8332V46.8188H106.175V35.9552H110.663V62.2364Z" fill="white"/>
<path d="M112.511 57.3392C112.511 55.808 113.013 54.5804 114.016 53.6564C115.019 52.7324 116.339 52.1384 117.963 51.9008L122.596 51.188C123.48 51.0692 123.929 50.6336 123.929 49.8944C123.929 49.076 123.639 48.416 123.071 47.9144C122.504 47.4128 121.646 47.1488 120.51 47.1488C119.428 47.1488 118.557 47.4524 117.91 48.0596C117.263 48.6668 116.894 49.4456 116.801 50.4092L112.868 49.5248C113.039 47.888 113.818 46.502 115.204 45.3536C116.59 44.2052 118.346 43.6244 120.471 43.6244C123.084 43.6244 125.025 44.258 126.279 45.512C127.533 46.766 128.153 48.3896 128.153 50.3696V59.3456C128.153 60.5336 128.232 61.4972 128.378 62.2364H124.378C124.259 61.8668 124.193 61.1012 124.193 59.9396C123.005 61.8404 121.157 62.7908 118.636 62.7908C116.801 62.7908 115.336 62.2496 114.201 61.1804C113.079 60.1112 112.511 58.8308 112.511 57.3392ZM119.454 59.4248C120.788 59.4248 121.87 59.0552 122.702 58.3292C123.533 57.6032 123.942 56.402 123.942 54.752V53.9336L119.23 54.6332C117.62 54.9104 116.814 55.7156 116.814 57.0752C116.814 57.722 117.052 58.2632 117.514 58.7252C117.989 59.1872 118.636 59.4248 119.454 59.4248Z" fill="white"/>
<path d="M130.648 39.8096C130.107 39.2684 129.83 38.6084 129.83 37.8428C129.83 37.0772 130.107 36.4172 130.648 35.8628C131.189 35.3084 131.849 35.0312 132.615 35.0312C133.407 35.0312 134.067 35.3084 134.621 35.8496C135.162 36.3908 135.44 37.064 135.44 37.856C135.44 38.6216 135.162 39.2816 134.621 39.8228C134.08 40.364 133.407 40.6412 132.615 40.6412C131.836 40.628 131.189 40.3508 130.648 39.8096ZM134.753 62.2364H130.49V44.1788H134.753V62.2364Z" fill="white"/>
<path d="M141.657 62.2364H137.472V35.4008H141.696V46.4096C142.145 45.644 142.871 44.9972 143.888 44.4824C144.904 43.9676 146.066 43.7036 147.372 43.7036C149.986 43.7036 152.032 44.588 153.51 46.3568C154.976 48.1256 155.715 50.3828 155.715 53.1284C155.715 55.9268 154.936 58.2104 153.392 60.0056C151.847 61.8008 149.788 62.6984 147.214 62.6984C144.64 62.6984 142.792 61.748 141.657 59.8472V62.2364ZM150.012 57.326C150.91 56.2964 151.359 54.9104 151.359 53.1548C151.359 51.3992 150.91 50.0264 150.026 49.0232C149.141 48.02 147.966 47.5184 146.501 47.5184C145.089 47.5184 143.927 48.02 143.016 49.0232C142.106 50.0264 141.644 51.3992 141.644 53.1548C141.644 54.884 142.106 56.27 143.016 57.3128C143.927 58.3556 145.089 58.8704 146.501 58.8704C147.94 58.8572 149.115 58.3556 150.012 57.326Z" fill="white"/>
<path d="M168.638 60.23C168.215 61.022 167.529 61.6424 166.578 62.078C165.628 62.5268 164.612 62.7512 163.516 62.7512C161.417 62.7512 159.754 62.078 158.526 60.7184C157.299 59.3588 156.692 57.6428 156.692 55.5704V44.192H161.008V54.7916C161.008 56.006 161.298 56.996 161.892 57.7616C162.486 58.5272 163.397 58.91 164.638 58.91C165.852 58.91 166.776 58.5404 167.436 57.8012C168.096 57.062 168.413 56.0852 168.413 54.8708V44.192H172.716V58.9496C172.716 60.032 172.782 61.1408 172.901 62.2496H168.796C168.69 61.6952 168.638 61.022 168.638 60.23Z" fill="white"/>
</svg>
