<?xml version="1.0" encoding="UTF-8"?>
<svg version="1.1" xmlns="http://www.w3.org/2000/svg" width="1000" height="1000">
<path d="M0 0 C89.1 0 178.2 0 270 0 C270 13.2 270 26.4 270 40 C293.1 40 316.2 40 340 40 C340 53.2 340 66.4 340 80 C353.2 80 366.4 80 380 80 C380 89.9 380 99.8 380 110 C406.4 110 432.8 110 460 110 C460 123.2 460 136.4 460 150 C473.2 150 486.4 150 500 150 C500 176.4 500 202.8 500 230 C513.2 230 526.4 230 540 230 C540 243.2 540 256.4 540 270 C553.2 270 566.4 270 580 270 C580 369 580 468 580 570 C566.8 570 553.6 570 540 570 C540 583.2 540 596.4 540 610 C526.8 610 513.6 610 500 610 C500 633.1 500 656.2 500 680 C486.8 680 473.6 680 460 680 C460 693.2 460 706.4 460 720 C436.9 720 413.8 720 390 720 C390 733.2 390 746.4 390 760 C376.8 760 363.6 760 350 760 C350 769.9 350 779.8 350 790 C323.6 790 297.2 790 270 790 C270 803.2 270 816.4 270 830 C180.9 830 91.8 830 0 830 C0 816.8 0 803.6 0 790 C-23.1 790 -46.2 790 -70 790 C-70 780.1 -70 770.2 -70 760 C-83.2 760 -96.4 760 -110 760 C-110 746.8 -110 733.6 -110 720 C-136.4 720 -162.8 720 -190 720 C-190 706.8 -190 693.6 -190 680 C-203.2 680 -216.4 680 -230 680 C-230 656.9 -230 633.8 -230 610 C-243.2 610 -256.4 610 -270 610 C-270 596.8 -270 583.6 -270 570 C-279.9 570 -289.8 570 -300 570 C-300 471 -300 372 -300 270 C-286.8 270 -273.6 270 -260 270 C-260 256.8 -260 243.6 -260 230 C-250.1 230 -240.2 230 -230 230 C-230 203.6 -230 177.2 -230 150 C-216.8 150 -203.6 150 -190 150 C-190 136.8 -190 123.6 -190 110 C-163.6 110 -137.2 110 -110 110 C-110 100.1 -110 90.2 -110 80 C-96.8 80 -83.6 80 -70 80 C-70 66.8 -70 53.6 -70 40 C-46.9 40 -23.8 40 0 40 C0 26.8 0 13.6 0 0 Z " fill="#F4A218" transform="translate(360,70)"/>
<path d="M0 0 C9.9 0 19.8 0 30 0 C30 13.2 30 26.4 30 40 C39.9 40 49.8 40 60 40 C60 49.9 60 59.8 60 70 C79.8 70 99.6 70 120 70 C120 93.1 120 116.2 120 140 C116.7 140 113.4 140 110 140 C110 149.9 110 159.8 110 170 C103.4 170 96.8 170 90 170 C90 176.6 90 183.2 90 190 C83.4 190 76.8 190 70 190 C70 199.9 70 209.8 70 220 C76.6 220 83.2 220 90 220 C90 249.7 90 279.4 90 310 C83.4 310 76.8 310 70 310 C70 316.6 70 323.2 70 330 C63.4 330 56.8 330 50 330 C50 336.6 50 343.2 50 350 C36.8 350 23.6 350 10 350 C10 359.9 10 369.8 10 380 C-6.5 380 -23 380 -40 380 C-40 386.6 -40 393.2 -40 400 C-86.2 400 -132.4 400 -180 400 C-180 393.4 -180 386.8 -180 380 C-196.5 380 -213 380 -230 380 C-230 370.1 -230 360.2 -230 350 C-236.6 350 -243.2 350 -250 350 C-250 343.4 -250 336.8 -250 330 C-256.6 330 -263.2 330 -270 330 C-270 323.4 -270 316.8 -270 310 C-276.6 310 -283.2 310 -290 310 C-290 303.4 -290 296.8 -290 290 C-303.2 290 -316.4 290 -330 290 C-330 280.1 -330 270.2 -330 260 C-323.4 260 -316.8 260 -310 260 C-310 253.4 -310 246.8 -310 240 C-303.4 240 -296.8 240 -290 240 C-290 233.4 -290 226.8 -290 220 C-283.4 220 -276.8 220 -270 220 C-270 210.1 -270 200.2 -270 190 C-263.4 190 -256.8 190 -250 190 C-250 183.4 -250 176.8 -250 170 C-233.5 170 -217 170 -200 170 C-200 153.5 -200 137 -200 120 C-180.2 120 -160.4 120 -140 120 C-140 106.8 -140 93.6 -140 80 C-133.4 80 -126.8 80 -120 80 C-120 63.5 -120 47 -120 30 C-113.4 30 -106.8 30 -100 30 C-100 23.4 -100 16.8 -100 10 C-80.2 10 -60.4 10 -40 10 C-40 16.6 -40 23.2 -40 30 C-26.8 30 -13.6 30 0 30 C0 20.1 0 10.2 0 0 Z " fill="#F4A218" transform="translate(600,260)"/>
<path d="M0 0 C89.1 0 178.2 0 270 0 C270 13.2 270 26.4 270 40 C279.9 40 289.8 40 300 40 C300 49.9 300 59.8 300 70 C309.9 70 319.8 70 330 70 C330 79.9 330 89.8 330 100 C339.9 100 349.8 100 360 100 C360 109.9 360 119.8 360 130 C369.9 130 379.8 130 390 130 C390 139.9 390 149.8 390 160 C380.1 160 370.2 160 360 160 C360 156.7 360 153.4 360 150 C340.2 150 320.4 150 300 150 C300 140.1 300 130.2 300 120 C290.1 120 280.2 120 270 120 C270 106.8 270 93.6 270 80 C260.1 80 250.2 80 240 80 C240 89.9 240 99.8 240 110 C226.8 110 213.6 110 200 110 C200 103.4 200 96.8 200 90 C180.2 90 160.4 90 140 90 C140 96.6 140 103.2 140 110 C133.4 110 126.8 110 120 110 C120 126.5 120 143 120 160 C113.4 160 106.8 160 100 160 C100 173.2 100 186.4 100 200 C80.2 200 60.4 200 40 200 C40 216.5 40 233 40 250 C23.5 250 7 250 -10 250 C-10 256.6 -10 263.2 -10 270 C-16.6 270 -23.2 270 -30 270 C-30 279.9 -30 289.8 -30 300 C-36.6 300 -43.2 300 -50 300 C-50 306.6 -50 313.2 -50 320 C-56.6 320 -63.2 320 -70 320 C-70 326.6 -70 333.2 -70 340 C-76.6 340 -83.2 340 -90 340 C-90 349.9 -90 359.8 -90 370 C-76.8 370 -63.6 370 -50 370 C-50 376.6 -50 383.2 -50 390 C-53.3 390 -56.6 390 -60 390 C-60 399.9 -60 409.8 -60 420 C-69.9 420 -79.8 420 -90 420 C-90 429.9 -90 439.8 -90 450 C-80.1 450 -70.2 450 -60 450 C-60 469.8 -60 489.6 -60 510 C-69.9 510 -79.8 510 -90 510 C-90 500.1 -90 490.2 -90 480 C-99.9 480 -109.8 480 -120 480 C-120 470.1 -120 460.2 -120 450 C-129.9 450 -139.8 450 -150 450 C-150 440.1 -150 430.2 -150 420 C-163.2 420 -176.4 420 -190 420 C-190 344.1 -190 268.2 -190 190 C-176.8 190 -163.6 190 -150 190 C-150 180.1 -150 170.2 -150 160 C-140.1 160 -130.2 160 -120 160 C-120 150.1 -120 140.2 -120 130 C-110.1 130 -100.2 130 -90 130 C-90 120.1 -90 110.2 -90 100 C-80.1 100 -70.2 100 -60 100 C-60 90.1 -60 80.2 -60 70 C-50.1 70 -40.2 70 -30 70 C-30 60.1 -30 50.2 -30 40 C-20.1 40 -10.2 40 0 40 C0 26.8 0 13.6 0 0 Z " fill="#F8840E" transform="translate(360,180)"/>
<path d="M0 0 C6.6 0 13.2 0 20 0 C20 29.7 20 59.4 20 90 C13.4 90 6.8 90 0 90 C0 96.6 0 103.2 0 110 C13.2 110 26.4 110 40 110 C40 103.4 40 96.8 40 90 C46.6 90 53.2 90 60 90 C60 113.1 60 136.2 60 160 C66.6 160 73.2 160 80 160 C80 183.1 80 206.2 80 230 C86.6 230 93.2 230 100 230 C100 243.2 100 256.4 100 270 C116.5 270 133 270 150 270 C150 279.9 150 289.8 150 300 C133.5 300 117 300 100 300 C100 306.6 100 313.2 100 320 C53.8 320 7.6 320 -40 320 C-40 313.4 -40 306.8 -40 300 C-56.5 300 -73 300 -90 300 C-90 290.1 -90 280.2 -90 270 C-96.6 270 -103.2 270 -110 270 C-110 263.4 -110 256.8 -110 250 C-116.6 250 -123.2 250 -130 250 C-130 243.4 -130 236.8 -130 230 C-136.6 230 -143.2 230 -150 230 C-150 223.4 -150 216.8 -150 210 C-163.2 210 -176.4 210 -190 210 C-190 200.1 -190 190.2 -190 180 C-183.4 180 -176.8 180 -170 180 C-170 173.4 -170 166.8 -170 160 C-163.4 160 -156.8 160 -150 160 C-150 153.4 -150 146.8 -150 140 C-143.4 140 -136.8 140 -130 140 C-130 130.1 -130 120.2 -130 110 C-123.4 110 -116.8 110 -110 110 C-110 103.4 -110 96.8 -110 90 C-93.5 90 -77 90 -60 90 C-60 73.5 -60 57 -60 40 C-40.2 40 -20.4 40 0 40 C0 26.8 0 13.6 0 0 Z " fill="#3A2606" transform="translate(460,340)"/>
<path d="M0 0 C9.9 0 19.8 0 30 0 C30 9.9 30 19.8 30 30 C39.9 30 49.8 30 60 30 C60 105.9 60 181.8 60 260 C50.1 260 40.2 260 30 260 C30 269.9 30 279.8 30 290 C20.1 290 10.2 290 0 290 C0 299.9 0 309.8 0 320 C-9.9 320 -19.8 320 -30 320 C-30 329.9 -30 339.8 -30 350 C-39.9 350 -49.8 350 -60 350 C-60 359.9 -60 369.8 -60 380 C-69.9 380 -79.8 380 -90 380 C-90 389.9 -90 399.8 -90 410 C-179.1 410 -268.2 410 -360 410 C-360 400.1 -360 390.2 -360 380 C-350.1 380 -340.2 380 -330 380 C-330 373.4 -330 366.8 -330 360 C-323.4 360 -316.8 360 -310 360 C-310 350.1 -310 340.2 -310 330 C-300.1 330 -290.2 330 -280 330 C-280 326.7 -280 323.4 -280 320 C-240.4 320 -200.8 320 -160 320 C-160 313.4 -160 306.8 -160 300 C-143.5 300 -127 300 -110 300 C-110 290.1 -110 280.2 -110 270 C-96.8 270 -83.6 270 -70 270 C-70 263.4 -70 256.8 -70 250 C-63.4 250 -56.8 250 -50 250 C-50 243.4 -50 236.8 -50 230 C-43.4 230 -36.8 230 -30 230 C-30 200.3 -30 170.6 -30 140 C-36.6 140 -43.2 140 -50 140 C-50 130.1 -50 120.2 -50 110 C-43.4 110 -36.8 110 -30 110 C-30 103.4 -30 96.8 -30 90 C-23.4 90 -16.8 90 -10 90 C-10 80.1 -10 70.2 -10 60 C-6.7 60 -3.4 60 0 60 C0 40.2 0 20.4 0 0 Z " fill="#FEC846" transform="translate(720,340)"/>
<path d="M0 0 C26.4 0 52.8 0 80 0 C80 13.2 80 26.4 80 40 C66.8 40 53.6 40 40 40 C40 53.2 40 66.4 40 80 C26.8 80 13.6 80 0 80 C0 103.1 0 126.2 0 150 C-13.2 150 -26.4 150 -40 150 C-40 163.2 -40 176.4 -40 190 C-63.1 190 -86.2 190 -110 190 C-110 203.2 -110 216.4 -110 230 C-123.2 230 -136.4 230 -150 230 C-150 239.9 -150 249.8 -150 260 C-176.4 260 -202.8 260 -230 260 C-230 273.2 -230 286.4 -230 300 C-292.7 300 -355.4 300 -420 300 C-420 296.7 -420 293.4 -420 290 C-416.7 290 -413.4 290 -410 290 C-410 286.7 -410 283.4 -410 280 C-406.7 280 -403.4 280 -400 280 C-400 276.7 -400 273.4 -400 270 C-396.7 270 -393.4 270 -390 270 C-390 266.7 -390 263.4 -390 260 C-343.8 260 -297.6 260 -250 260 C-250 246.8 -250 233.6 -250 220 C-220.3 220 -190.6 220 -160 220 C-160 210.1 -160 200.2 -160 190 C-146.8 190 -133.6 190 -120 190 C-120 176.8 -120 163.6 -120 150 C-96.9 150 -73.8 150 -50 150 C-50 126.9 -50 103.8 -50 80 C-40.1 80 -30.2 80 -20 80 C-20 66.8 -20 53.6 -20 40 C-13.4 40 -6.8 40 0 40 C0 26.8 0 13.6 0 0 Z " fill="#AC5C08" transform="translate(860,600)"/>
<path d="M0 0 C9.9 0 19.8 0 30 0 C30 13.2 30 26.4 30 40 C39.9 40 49.8 40 60 40 C60 49.9 60 59.8 60 70 C79.8 70 99.6 70 120 70 C120 93.1 120 116.2 120 140 C116.7 140 113.4 140 110 140 C110 149.9 110 159.8 110 170 C103.4 170 96.8 170 90 170 C90 176.6 90 183.2 90 190 C83.4 190 76.8 190 70 190 C70 199.9 70 209.8 70 220 C63.4 220 56.8 220 50 220 C50 210.1 50 200.2 50 190 C43.4 190 36.8 190 30 190 C30 183.4 30 176.8 30 170 C13.5 170 -3 170 -20 170 C-20 153.5 -20 137 -20 120 C-26.6 120 -33.2 120 -40 120 C-40 113.4 -40 106.8 -40 100 C-33.4 100 -26.8 100 -20 100 C-20 76.9 -20 53.8 -20 30 C-13.4 30 -6.8 30 0 30 C0 20.1 0 10.2 0 0 Z " fill="#FAA618" transform="translate(600,260)"/>
<path d="M0 0 C6.6 0 13.2 0 20 0 C20 6.6 20 13.2 20 20 C26.6 20 33.2 20 40 20 C40 29.9 40 39.8 40 50 C46.6 50 53.2 50 60 50 C60 63.2 60 76.4 60 90 C66.6 90 73.2 90 80 90 C80 113.1 80 136.2 80 160 C86.6 160 93.2 160 100 160 C100 176.5 100 193 100 210 C73.6 210 47.2 210 20 210 C20 193.5 20 177 20 160 C13.4 160 6.8 160 0 160 C0 136.9 0 113.8 0 90 C-6.6 90 -13.2 90 -20 90 C-20 66.9 -20 43.8 -20 20 C-13.4 20 -6.8 20 0 20 C0 13.4 0 6.8 0 0 Z " fill="#F4A218" transform="translate(420,430)"/>
<path d="M0 0 C13.2 0 26.4 0 40 0 C40 99 40 198 40 300 C49.9 300 59.8 300 70 300 C70 313.2 70 326.4 70 340 C56.8 340 43.6 340 30 340 C30 326.8 30 313.6 30 300 C20.1 300 10.2 300 0 300 C0 201 0 102 0 0 Z " fill="#F6840C" transform="translate(60,340)"/>
<path d="M0 0 C9.9 0 19.8 0 30 0 C30 6.6 30 13.2 30 20 C36.6 20 43.2 20 50 20 C50 26.6 50 33.2 50 40 C56.6 40 63.2 40 70 40 C70 49.9 70 59.8 70 70 C86.5 70 103 70 120 70 C120 76.6 120 83.2 120 90 C126.6 90 133.2 90 140 90 C140 93.3 140 96.6 140 100 C130.1 100 120.2 100 110 100 C110 109.9 110 119.8 110 130 C103.4 130 96.8 130 90 130 C90 136.6 90 143.2 90 150 C70.2 150 50.4 150 30 150 C30 140.1 30 130.2 30 120 C20.1 120 10.2 120 0 120 C0 100.2 0 80.4 0 60 C-9.9 60 -19.8 60 -30 60 C-30 50.1 -30 40.2 -30 30 C-20.1 30 -10.2 30 0 30 C0 20.1 0 10.2 0 0 Z " fill="#FAA618" transform="translate(300,570)"/>
<path d="M0 0 C89.1 0 178.2 0 270 0 C270 13.2 270 26.4 270 40 C180.9 40 91.8 40 0 40 C0 26.8 0 13.6 0 0 Z " fill="#D66002" transform="translate(360,750)"/>
<path d="M0 0 C89.1 0 178.2 0 270 0 C270 13.2 270 26.4 270 40 C180.9 40 91.8 40 0 40 C0 26.8 0 13.6 0 0 Z " fill="#D66002" transform="translate(360,180)"/>
<path d="M0 0 C13.2 0 26.4 0 40 0 C40 85.8 40 171.6 40 260 C26.8 260 13.6 260 0 260 C0 174.2 0 88.4 0 0 Z " fill="#F6840C" transform="translate(900,340)"/>
<path d="M0 0 C19.8 0 39.6 0 60 0 C60 29.7 60 59.4 60 90 C69.9 90 79.8 90 90 90 C90 103.2 90 116.4 90 130 C73.5 130 57 130 40 130 C40 123.4 40 116.8 40 110 C33.4 110 26.8 110 20 110 C20 103.4 20 96.8 20 90 C13.4 90 6.8 90 0 90 C0 83.4 0 76.8 0 70 C-13.2 70 -26.4 70 -40 70 C-40 60.1 -40 50.2 -40 40 C-33.4 40 -26.8 40 -20 40 C-20 33.4 -20 26.8 -20 20 C-13.4 20 -6.8 20 0 20 C0 13.4 0 6.8 0 0 Z " fill="#AA7210" transform="translate(310,480)"/>
<path d="M0 0 C13.2 0 26.4 0 40 0 C40 75.9 40 151.8 40 230 C26.8 230 13.6 230 0 230 C0 154.1 0 78.2 0 0 Z " fill="#D66002" transform="translate(780,370)"/>
<path d="M0 0 C13.2 0 26.4 0 40 0 C40 75.9 40 151.8 40 230 C26.8 230 13.6 230 0 230 C0 154.1 0 78.2 0 0 Z " fill="#D66002" transform="translate(170,370)"/>
<path d="M0 0 C19.8 0 39.6 0 60 0 C60 6.6 60 13.2 60 20 C66.6 20 73.2 20 80 20 C80 43.1 80 66.2 80 90 C73.4 90 66.8 90 60 90 C60 96.6 60 103.2 60 110 C66.6 110 73.2 110 80 110 C80 119.9 80 129.8 80 140 C66.8 140 53.6 140 40 140 C40 116.9 40 93.8 40 70 C20.2 70 0.4 70 -20 70 C-20 53.5 -20 37 -20 20 C-13.4 20 -6.8 20 0 20 C0 13.4 0 6.8 0 0 Z " fill="#AA7210" transform="translate(500,270)"/>
<path d="M0 0 C26.4 0 52.8 0 80 0 C80 13.2 80 26.4 80 40 C56.9 40 33.8 40 10 40 C10 46.6 10 53.2 10 60 C6.7 60 3.4 60 0 60 C0 79.8 0 99.6 0 120 C-9.9 120 -19.8 120 -30 120 C-30 133.2 -30 146.4 -30 160 C-43.2 160 -56.4 160 -70 160 C-70 146.8 -70 133.6 -70 120 C-60.1 120 -50.2 120 -40 120 C-40 93.6 -40 67.2 -40 40 C-26.8 40 -13.6 40 0 40 C0 26.8 0 13.6 0 0 Z " fill="#F8A955" transform="translate(170,180)"/>
<path d="M0 0 C89.1 0 178.2 0 270 0 C270 9.9 270 19.8 270 30 C180.9 30 91.8 30 0 30 C0 20.1 0 10.2 0 0 Z " fill="#FEEA88" transform="translate(360,720)"/>
<path d="M0 0 C62.7 0 125.4 0 190 0 C190 13.2 190 26.4 190 40 C127.3 40 64.6 40 0 40 C0 26.8 0 13.6 0 0 Z " fill="#F6840C" transform="translate(440,70)"/>
<path d="M0 0 C9.9 0 19.8 0 30 0 C30 75.9 30 151.8 30 230 C20.1 230 10.2 230 0 230 C0 154.1 0 78.2 0 0 Z " fill="#FEEA88" transform="translate(750,370)"/>
<path d="M0 0 C26.4 0 52.8 0 80 0 C80 13.2 80 26.4 80 40 C56.9 40 33.8 40 10 40 C10 53.2 10 66.4 10 80 C-16.4 80 -42.8 80 -70 80 C-70 66.8 -70 53.6 -70 40 C-46.9 40 -23.8 40 0 40 C0 26.8 0 13.6 0 0 Z " fill="#F8A955" transform="translate(360,70)"/>
<path d="M0 0 C13.2 0 26.4 0 40 0 C40 9.9 40 19.8 40 30 C63.1 30 86.2 30 110 30 C110 43.2 110 56.4 110 70 C86.9 70 63.8 70 40 70 C40 60.1 40 50.2 40 40 C26.8 40 13.6 40 0 40 C0 26.8 0 13.6 0 0 Z " fill="#F6840C" transform="translate(250,790)"/>
<path d="M0 0 C19.8 0 39.6 0 60 0 C60 23.1 60 46.2 60 70 C53.4 70 46.8 70 40 70 C40 53.5 40 37 40 20 C33.4 20 26.8 20 20 20 C20 49.7 20 79.4 20 110 C6.8 110 -6.4 110 -20 110 C-20 103.4 -20 96.8 -20 90 C-13.4 90 -6.8 90 0 90 C0 60.3 0 30.6 0 0 Z " fill="#F4A218" transform="translate(480,340)"/>
<path d="M0 0 C36.3 0 72.6 0 110 0 C110 3.3 110 6.6 110 10 C106.7 10 103.4 10 100 10 C100 13.3 100 16.6 100 20 C96.7 20 93.4 20 90 20 C90 23.3 90 26.6 90 30 C86.7 30 83.4 30 80 30 C80 33.3 80 36.6 80 40 C53.6 40 27.2 40 0 40 C0 26.8 0 13.6 0 0 Z " fill="#F6840C" transform="translate(360,860)"/>
<path d="M0 0 C6.6 0 13.2 0 20 0 C20 29.7 20 59.4 20 90 C13.4 90 6.8 90 0 90 C0 83.4 0 76.8 0 70 C-13.2 70 -26.4 70 -40 70 C-40 60.1 -40 50.2 -40 40 C-33.4 40 -26.8 40 -20 40 C-20 33.4 -20 26.8 -20 20 C-13.4 20 -6.8 20 0 20 C0 13.4 0 6.8 0 0 Z " fill="#3A2606" transform="translate(310,480)"/>
<path d="M0 0 C13.2 0 26.4 0 40 0 C40 9.9 40 19.8 40 30 C33.4 30 26.8 30 20 30 C20 36.6 20 43.2 20 50 C13.4 50 6.8 50 0 50 C0 63.2 0 76.4 0 90 C-9.9 90 -19.8 90 -30 90 C-30 70.2 -30 50.4 -30 30 C-20.1 30 -10.2 30 0 30 C0 20.1 0 10.2 0 0 Z " fill="#3A2606" transform="translate(400,290)"/>
<path d="M0 0 C26.4 0 52.8 0 80 0 C80 13.2 80 26.4 80 40 C53.6 40 27.2 40 0 40 C0 26.8 0 13.6 0 0 Z " fill="#F6840C" transform="translate(170,750)"/>
<path d="M0 0 C26.4 0 52.8 0 80 0 C80 13.2 80 26.4 80 40 C53.6 40 27.2 40 0 40 C0 26.8 0 13.6 0 0 Z " fill="#AC5C08" transform="translate(860,600)"/>
<path d="M0 0 C6.6 0 13.2 0 20 0 C20 6.6 20 13.2 20 20 C33.2 20 46.4 20 60 20 C60 13.4 60 6.8 60 0 C66.6 0 73.2 0 80 0 C80 16.5 80 33 80 50 C53.6 50 27.2 50 0 50 C0 33.5 0 17 0 0 Z " fill="#AA7210" transform="translate(440,590)"/>
<path d="M0 0 C6.6 0 13.2 0 20 0 C20 16.5 20 33 20 50 C26.6 50 33.2 50 40 50 C40 79.7 40 109.4 40 140 C33.4 140 26.8 140 20 140 C20 116.9 20 93.8 20 70 C13.4 70 6.8 70 0 70 C0 46.9 0 23.8 0 0 Z " fill="#76500C" transform="translate(500,360)"/>
<path d="M0 0 C13.2 0 26.4 0 40 0 C40 19.8 40 39.6 40 60 C20.2 60 0.4 60 -20 60 C-20 46.8 -20 33.6 -20 20 C-13.4 20 -6.8 20 0 20 C0 13.4 0 6.8 0 0 Z " fill="#76500C" transform="translate(420,320)"/>
<path d="M0 0 C13.2 0 26.4 0 40 0 C40 26.4 40 52.8 40 80 C26.8 80 13.6 80 0 80 C0 53.6 0 27.2 0 0 Z " fill="#F6840C" transform="translate(820,220)"/>
<path d="M0 0 C26.4 0 52.8 0 80 0 C80 13.2 80 26.4 80 40 C53.6 40 27.2 40 0 40 C0 26.8 0 13.6 0 0 Z " fill="#F6840C" transform="translate(740,180)"/>
<path d="M0 0 C13.2 0 26.4 0 40 0 C40 23.1 40 46.2 40 70 C26.8 70 13.6 70 0 70 C0 46.9 0 23.8 0 0 Z " fill="#F6840C" transform="translate(130,680)"/>
<path d="M0 0 C23.1 0 46.2 0 70 0 C70 13.2 70 26.4 70 40 C46.9 40 23.8 40 0 40 C0 26.8 0 13.6 0 0 Z " fill="#F6840C" transform="translate(630,110)"/>
<path d="M0 0 C16.5 0 33 0 50 0 C50 13.2 50 26.4 50 40 C26.9 40 3.8 40 -20 40 C-20 30.1 -20 20.2 -20 10 C-13.4 10 -6.8 10 0 10 C0 6.7 0 3.4 0 0 Z " fill="#F8A955" transform="translate(200,180)"/>
<path d="M0 0 C19.8 0 39.6 0 60 0 C60 23.1 60 46.2 60 70 C53.4 70 46.8 70 40 70 C40 53.5 40 37 40 20 C26.8 20 13.6 20 0 20 C0 13.4 0 6.8 0 0 Z " fill="#F4A218" transform="translate(480,340)"/>
<path d="M0 0 C19.8 0 39.6 0 60 0 C60 6.6 60 13.2 60 20 C53.4 20 46.8 20 40 20 C40 26.6 40 33.2 40 40 C26.8 40 13.6 40 0 40 C0 26.8 0 13.6 0 0 Z " fill="#AA7210" transform="translate(610,570)"/>
<path d="M0 0 C9.9 0 19.8 0 30 0 C30 3.3 30 6.6 30 10 C23.4 10 16.8 10 10 10 C10 26.5 10 43 10 60 C-3.2 60 -16.4 60 -30 60 C-30 69.9 -30 79.8 -30 90 C-33.3 90 -36.6 90 -40 90 C-40 73.5 -40 57 -40 40 C-26.8 40 -13.6 40 0 40 C0 26.8 0 13.6 0 0 Z " fill="#FAC388" transform="translate(170,180)"/>
<path d="M0 0 C6.6 0 13.2 0 20 0 C20 29.7 20 59.4 20 90 C13.4 90 6.8 90 0 90 C0 60.3 0 30.6 0 0 Z " fill="#3A2606" transform="translate(670,480)"/>
<path d="M0 0 C6.6 0 13.2 0 20 0 C20 29.7 20 59.4 20 90 C13.4 90 6.8 90 0 90 C0 60.3 0 30.6 0 0 Z " fill="#76500C" transform="translate(460,340)"/>
<path d="M0 0 C13.2 0 26.4 0 40 0 C40 13.2 40 26.4 40 40 C26.8 40 13.6 40 0 40 C0 26.8 0 13.6 0 0 Z " fill="#AA7110" transform="translate(860,600)"/>
<path d="M0 0 C6.6 0 13.2 0 20 0 C20 6.6 20 13.2 20 20 C26.6 20 33.2 20 40 20 C40 29.9 40 39.8 40 50 C26.8 50 13.6 50 0 50 C0 33.5 0 17 0 0 Z " fill="#3A2606" transform="translate(540,360)"/>
<path d="M0 0 C13.2 0 26.4 0 40 0 C40 13.2 40 26.4 40 40 C26.8 40 13.6 40 0 40 C0 26.8 0 13.6 0 0 Z " fill="#F6840C" transform="translate(860,300)"/>
<path d="M0 0 C13.2 0 26.4 0 40 0 C40 9.9 40 19.8 40 30 C33.4 30 26.8 30 20 30 C20 36.6 20 43.2 20 50 C13.4 50 6.8 50 0 50 C0 33.5 0 17 0 0 Z " fill="#3A2606" transform="translate(400,290)"/>
<path d="M0 0 C6.6 0 13.2 0 20 0 C20 6.6 20 13.2 20 20 C29.9 20 39.8 20 50 20 C50 26.6 50 33.2 50 40 C33.5 40 17 40 0 40 C0 26.8 0 13.6 0 0 Z " fill="#AA7210" transform="translate(560,570)"/>
<path d="M0 0 C6.6 0 13.2 0 20 0 C20 23.1 20 46.2 20 70 C13.4 70 6.8 70 0 70 C0 46.9 0 23.8 0 0 Z " fill="#AA7210" transform="translate(420,520)"/>
<path d="M0 0 C6.6 0 13.2 0 20 0 C20 23.1 20 46.2 20 70 C13.4 70 6.8 70 0 70 C0 46.9 0 23.8 0 0 Z " fill="#AA7210" transform="translate(540,500)"/>
<path d="M0 0 C6.6 0 13.2 0 20 0 C20 13.2 20 26.4 20 40 C3.5 40 -13 40 -30 40 C-30 33.4 -30 26.8 -30 20 C-20.1 20 -10.2 20 0 20 C0 13.4 0 6.8 0 0 Z " fill="#3A2606" transform="translate(610,480)"/>
<path d="M0 0 C6.6 0 13.2 0 20 0 C20 23.1 20 46.2 20 70 C13.4 70 6.8 70 0 70 C0 46.9 0 23.8 0 0 Z " fill="#F4A218" transform="translate(330,480)"/>
<path d="M0 0 C6.6 0 13.2 0 20 0 C20 23.1 20 46.2 20 70 C13.4 70 6.8 70 0 70 C0 46.9 0 23.8 0 0 Z " fill="#AA7210" transform="translate(400,450)"/>
<path d="M0 0 C6.6 0 13.2 0 20 0 C20 23.1 20 46.2 20 70 C13.4 70 6.8 70 0 70 C0 46.9 0 23.8 0 0 Z " fill="#AA7210" transform="translate(520,430)"/>
<path d="M0 0 C6.6 0 13.2 0 20 0 C20 23.1 20 46.2 20 70 C13.4 70 6.8 70 0 70 C0 46.9 0 23.8 0 0 Z " fill="#3A2606" transform="translate(560,290)"/>
<path d="M0 0 C6.6 0 13.2 0 20 0 C20 19.8 20 39.6 20 60 C13.4 60 6.8 60 0 60 C0 40.2 0 20.4 0 0 Z " fill="#AA7210" transform="translate(480,520)"/>
<path d="M0 0 C19.8 0 39.6 0 60 0 C60 6.6 60 13.2 60 20 C40.2 20 20.4 20 0 20 C0 13.4 0 6.8 0 0 Z " fill="#3A2606" transform="translate(500,270)"/>
<path d="M0 0 C13.2 0 26.4 0 40 0 C40 9.9 40 19.8 40 30 C26.8 30 13.6 30 0 30 C0 20.1 0 10.2 0 0 Z " fill="#F6840C" transform="translate(700,150)"/>
<path d="M0 0 C13.2 0 26.4 0 40 0 C40 9.9 40 19.8 40 30 C26.8 30 13.6 30 0 30 C0 20.1 0 10.2 0 0 Z " fill="#F8A955" transform="translate(250,150)"/>
<path d="M0 0 C16.5 0 33 0 50 0 C50 6.6 50 13.2 50 20 C33.5 20 17 20 0 20 C0 13.4 0 6.8 0 0 Z " fill="#3A2606" transform="translate(580,410)"/>
<path d="M0 0 C6.6 0 13.2 0 20 0 C20 16.5 20 33 20 50 C13.4 50 6.8 50 0 50 C0 33.5 0 17 0 0 Z " fill="#3A2606" transform="translate(690,380)"/>
<path d="M0 0 C6.6 0 13.2 0 20 0 C20 16.5 20 33 20 50 C13.4 50 6.8 50 0 50 C0 33.5 0 17 0 0 Z " fill="#FAA618" transform="translate(670,380)"/>
<path d="M0 0 C6.6 0 13.2 0 20 0 C20 16.5 20 33 20 50 C13.4 50 6.8 50 0 50 C0 33.5 0 17 0 0 Z " fill="#3A2606" transform="translate(650,380)"/>
<path d="M0 0 C6.6 0 13.2 0 20 0 C20 16.5 20 33 20 50 C13.4 50 6.8 50 0 50 C0 33.5 0 17 0 0 Z " fill="#523808" transform="translate(520,290)"/>
<path d="M0 0 C6.6 0 13.2 0 20 0 C20 16.5 20 33 20 50 C13.4 50 6.8 50 0 50 C0 33.5 0 17 0 0 Z " fill="#3A2606" transform="translate(480,290)"/>
<path d="M0 0 C9.9 0 19.8 0 30 0 C30 9.9 30 19.8 30 30 C20.1 30 10.2 30 0 30 C0 20.1 0 10.2 0 0 Z " fill="#D66002" transform="translate(630,720)"/>
<path d="M0 0 C9.9 0 19.8 0 30 0 C30 9.9 30 19.8 30 30 C20.1 30 10.2 30 0 30 C0 20.1 0 10.2 0 0 Z " fill="#D66002" transform="translate(330,720)"/>
<path d="M0 0 C9.9 0 19.8 0 30 0 C30 9.9 30 19.8 30 30 C20.1 30 10.2 30 0 30 C0 20.1 0 10.2 0 0 Z " fill="#D66002" transform="translate(660,690)"/>
<path d="M0 0 C9.9 0 19.8 0 30 0 C30 9.9 30 19.8 30 30 C20.1 30 10.2 30 0 30 C0 20.1 0 10.2 0 0 Z " fill="#FEEA88" transform="translate(630,690)"/>
<path d="M0 0 C9.9 0 19.8 0 30 0 C30 9.9 30 19.8 30 30 C20.1 30 10.2 30 0 30 C0 20.1 0 10.2 0 0 Z " fill="#D66002" transform="translate(300,690)"/>
<path d="M0 0 C9.9 0 19.8 0 30 0 C30 9.9 30 19.8 30 30 C20.1 30 10.2 30 0 30 C0 20.1 0 10.2 0 0 Z " fill="#D66002" transform="translate(690,660)"/>
<path d="M0 0 C9.9 0 19.8 0 30 0 C30 9.9 30 19.8 30 30 C20.1 30 10.2 30 0 30 C0 20.1 0 10.2 0 0 Z " fill="#FEEA88" transform="translate(660,660)"/>
<path d="M0 0 C9.9 0 19.8 0 30 0 C30 9.9 30 19.8 30 30 C20.1 30 10.2 30 0 30 C0 20.1 0 10.2 0 0 Z " fill="#D66002" transform="translate(270,660)"/>
<path d="M0 0 C9.9 0 19.8 0 30 0 C30 9.9 30 19.8 30 30 C20.1 30 10.2 30 0 30 C0 20.1 0 10.2 0 0 Z " fill="#D66002" transform="translate(720,630)"/>
<path d="M0 0 C9.9 0 19.8 0 30 0 C30 9.9 30 19.8 30 30 C20.1 30 10.2 30 0 30 C0 20.1 0 10.2 0 0 Z " fill="#FEEA88" transform="translate(690,630)"/>
<path d="M0 0 C9.9 0 19.8 0 30 0 C30 9.9 30 19.8 30 30 C20.1 30 10.2 30 0 30 C0 20.1 0 10.2 0 0 Z " fill="#D66002" transform="translate(240,630)"/>
<path d="M0 0 C9.9 0 19.8 0 30 0 C30 9.9 30 19.8 30 30 C20.1 30 10.2 30 0 30 C0 20.1 0 10.2 0 0 Z " fill="#D66002" transform="translate(750,600)"/>
<path d="M0 0 C9.9 0 19.8 0 30 0 C30 9.9 30 19.8 30 30 C20.1 30 10.2 30 0 30 C0 20.1 0 10.2 0 0 Z " fill="#FEEA88" transform="translate(720,600)"/>
<path d="M0 0 C9.9 0 19.8 0 30 0 C30 9.9 30 19.8 30 30 C20.1 30 10.2 30 0 30 C0 20.1 0 10.2 0 0 Z " fill="#D66002" transform="translate(210,600)"/>
<path d="M0 0 C9.9 0 19.8 0 30 0 C30 9.9 30 19.8 30 30 C20.1 30 10.2 30 0 30 C0 20.1 0 10.2 0 0 Z " fill="#D66002" transform="translate(750,340)"/>
<path d="M0 0 C9.9 0 19.8 0 30 0 C30 9.9 30 19.8 30 30 C20.1 30 10.2 30 0 30 C0 20.1 0 10.2 0 0 Z " fill="#D66002" transform="translate(210,340)"/>
<path d="M0 0 C9.9 0 19.8 0 30 0 C30 9.9 30 19.8 30 30 C20.1 30 10.2 30 0 30 C0 20.1 0 10.2 0 0 Z " fill="#D66002" transform="translate(720,310)"/>
<path d="M0 0 C9.9 0 19.8 0 30 0 C30 9.9 30 19.8 30 30 C20.1 30 10.2 30 0 30 C0 20.1 0 10.2 0 0 Z " fill="#D66002" transform="translate(240,310)"/>
<path d="M0 0 C9.9 0 19.8 0 30 0 C30 9.9 30 19.8 30 30 C20.1 30 10.2 30 0 30 C0 20.1 0 10.2 0 0 Z " fill="#D66002" transform="translate(690,280)"/>
<path d="M0 0 C9.9 0 19.8 0 30 0 C30 9.9 30 19.8 30 30 C20.1 30 10.2 30 0 30 C0 20.1 0 10.2 0 0 Z " fill="#D66002" transform="translate(270,280)"/>
<path d="M0 0 C9.9 0 19.8 0 30 0 C30 9.9 30 19.8 30 30 C20.1 30 10.2 30 0 30 C0 20.1 0 10.2 0 0 Z " fill="#D66002" transform="translate(660,250)"/>
<path d="M0 0 C9.9 0 19.8 0 30 0 C30 9.9 30 19.8 30 30 C20.1 30 10.2 30 0 30 C0 20.1 0 10.2 0 0 Z " fill="#D66002" transform="translate(300,250)"/>
<path d="M0 0 C9.9 0 19.8 0 30 0 C30 9.9 30 19.8 30 30 C20.1 30 10.2 30 0 30 C0 20.1 0 10.2 0 0 Z " fill="#D66002" transform="translate(630,220)"/>
<path d="M0 0 C9.9 0 19.8 0 30 0 C30 9.9 30 19.8 30 30 C20.1 30 10.2 30 0 30 C0 20.1 0 10.2 0 0 Z " fill="#D66002" transform="translate(330,220)"/>
<path d="M0 0 C6.6 0 13.2 0 20 0 C20 13.2 20 26.4 20 40 C13.4 40 6.8 40 0 40 C0 26.8 0 13.6 0 0 Z " fill="#AC7311" transform="translate(610,820)"/>
<path d="M0 0 C6.6 0 13.2 0 20 0 C20 13.2 20 26.4 20 40 C13.4 40 6.8 40 0 40 C0 26.8 0 13.6 0 0 Z " fill="#AA7110" transform="translate(840,640)"/>
<path d="M0 0 C13.2 0 26.4 0 40 0 C40 6.6 40 13.2 40 20 C26.8 20 13.6 20 0 20 C0 13.4 0 6.8 0 0 Z " fill="#3A2606" transform="translate(610,590)"/>
<path d="M0 0 C6.6 0 13.2 0 20 0 C20 13.2 20 26.4 20 40 C13.4 40 6.8 40 0 40 C0 26.8 0 13.6 0 0 Z " fill="#AA7210" transform="translate(460,480)"/>
<path d="M0 0 C13.2 0 26.4 0 40 0 C40 6.6 40 13.2 40 20 C26.8 20 13.6 20 0 20 C0 13.4 0 6.8 0 0 Z " fill="#AA7210" transform="translate(460,430)"/>
<path d="M0 0 C13.2 0 26.4 0 40 0 C40 6.6 40 13.2 40 20 C26.8 20 13.6 20 0 20 C0 13.4 0 6.8 0 0 Z " fill="#AA7210" transform="translate(420,360)"/>
<path d="M0 0 C6.6 0 13.2 0 20 0 C20 13.2 20 26.4 20 40 C13.4 40 6.8 40 0 40 C0 26.8 0 13.6 0 0 Z " fill="#3A2606" transform="translate(460,340)"/>
<path d="M0 0 C3.3 0 6.6 0 10 0 C10 23.1 10 46.2 10 70 C6.7 70 3.4 70 0 70 C0 46.9 0 23.8 0 0 Z " fill="#AB7211" transform="translate(810,680)"/>
<path d="M0 0 C9.9 0 19.8 0 30 0 C30 6.6 30 13.2 30 20 C20.1 20 10.2 20 0 20 C0 13.4 0 6.8 0 0 Z " fill="#7C7C7C" transform="translate(580,480)"/>
<path d="M0 0 C6.6 0 13.2 0 20 0 C20 9.9 20 19.8 20 30 C13.4 30 6.8 30 0 30 C0 20.1 0 10.2 0 0 Z " fill="#3A2606" transform="translate(650,450)"/>
<path d="M0 0 C6.6 0 13.2 0 20 0 C20 9.9 20 19.8 20 30 C13.4 30 6.8 30 0 30 C0 20.1 0 10.2 0 0 Z " fill="#AA7110" transform="translate(440,450)"/>
<path d="M0 0 C6.6 0 13.2 0 20 0 C20 9.9 20 19.8 20 30 C13.4 30 6.8 30 0 30 C0 20.1 0 10.2 0 0 Z " fill="#AA7210" transform="translate(520,380)"/>
<path d="M0 0 C6.6 0 13.2 0 20 0 C20 9.9 20 19.8 20 30 C13.4 30 6.8 30 0 30 C0 20.1 0 10.2 0 0 Z " fill="#76500C" transform="translate(420,380)"/>
<path d="M0 0 C6.6 0 13.2 0 20 0 C20 9.9 20 19.8 20 30 C13.4 30 6.8 30 0 30 C0 20.1 0 10.2 0 0 Z " fill="#AA7210" transform="translate(540,290)"/>
<path d="M0 0 C9.9 0 19.8 0 30 0 C30 3.3 30 6.6 30 10 C26.7 10 23.4 10 20 10 C20 13.3 20 16.6 20 20 C13.4 20 6.8 20 0 20 C0 13.4 0 6.8 0 0 Z " fill="#FAC488" transform="translate(290,110)"/>
<path d="M0 0 C6.6 0 13.2 0 20 0 C20 6.6 20 13.2 20 20 C13.4 20 6.8 20 0 20 C0 13.4 0 6.8 0 0 Z " fill="#3A2606" transform="translate(350,590)"/>
<path d="M0 0 C6.6 0 13.2 0 20 0 C20 6.6 20 13.2 20 20 C13.4 20 6.8 20 0 20 C0 13.4 0 6.8 0 0 Z " fill="#3A2706" transform="translate(650,570)"/>
<path d="M0 0 C6.6 0 13.2 0 20 0 C20 6.6 20 13.2 20 20 C13.4 20 6.8 20 0 20 C0 13.4 0 6.8 0 0 Z " fill="#3A2606" transform="translate(330,570)"/>
<path d="M0 0 C6.6 0 13.2 0 20 0 C20 6.6 20 13.2 20 20 C13.4 20 6.8 20 0 20 C0 13.4 0 6.8 0 0 Z " fill="#AB7211" transform="translate(650,550)"/>
<path d="M0 0 C6.6 0 13.2 0 20 0 C20 6.6 20 13.2 20 20 C13.4 20 6.8 20 0 20 C0 13.4 0 6.8 0 0 Z " fill="#3A2706" transform="translate(670,430)"/>
<path d="M0 0 C6.6 0 13.2 0 20 0 C20 6.6 20 13.2 20 20 C13.4 20 6.8 20 0 20 C0 13.4 0 6.8 0 0 Z " fill="#FEC846" transform="translate(650,430)"/>
<path d="M0 0 C6.6 0 13.2 0 20 0 C20 6.6 20 13.2 20 20 C13.4 20 6.8 20 0 20 C0 13.4 0 6.8 0 0 Z " fill="#392606" transform="translate(630,430)"/>
<path d="M0 0 C6.6 0 13.2 0 20 0 C20 6.6 20 13.2 20 20 C13.4 20 6.8 20 0 20 C0 13.4 0 6.8 0 0 Z " fill="#F4A218" transform="translate(460,430)"/>
<path d="M0 0 C6.6 0 13.2 0 20 0 C20 6.6 20 13.2 20 20 C13.4 20 6.8 20 0 20 C0 13.4 0 6.8 0 0 Z " fill="#3A2606" transform="translate(520,410)"/>
<path d="M0 0 C6.6 0 13.2 0 20 0 C20 6.6 20 13.2 20 20 C13.4 20 6.8 20 0 20 C0 13.4 0 6.8 0 0 Z " fill="#AA7110" transform="translate(500,410)"/>
<path d="M0 0 C6.6 0 13.2 0 20 0 C20 6.6 20 13.2 20 20 C13.4 20 6.8 20 0 20 C0 13.4 0 6.8 0 0 Z " fill="#AA7111" transform="translate(460,410)"/>
<path d="M0 0 C6.6 0 13.2 0 20 0 C20 6.6 20 13.2 20 20 C13.4 20 6.8 20 0 20 C0 13.4 0 6.8 0 0 Z " fill="#3A2606" transform="translate(670,360)"/>
<path d="M0 0 C6.6 0 13.2 0 20 0 C20 6.6 20 13.2 20 20 C13.4 20 6.8 20 0 20 C0 13.4 0 6.8 0 0 Z " fill="#3A2606" transform="translate(630,360)"/>
<path d="M0 0 C6.6 0 13.2 0 20 0 C20 6.6 20 13.2 20 20 C13.4 20 6.8 20 0 20 C0 13.4 0 6.8 0 0 Z " fill="#523808" transform="translate(500,360)"/>
<path d="M0 0 C6.6 0 13.2 0 20 0 C20 6.6 20 13.2 20 20 C13.4 20 6.8 20 0 20 C0 13.4 0 6.8 0 0 Z " fill="#F4A218" transform="translate(420,360)"/>
<path d="M0 0 C6.6 0 13.2 0 20 0 C20 6.6 20 13.2 20 20 C13.4 20 6.8 20 0 20 C0 13.4 0 6.8 0 0 Z " fill="#76500C" transform="translate(400,360)"/>
<path d="M0 0 C6.6 0 13.2 0 20 0 C20 6.6 20 13.2 20 20 C13.4 20 6.8 20 0 20 C0 13.4 0 6.8 0 0 Z " fill="#AA7110" transform="translate(480,340)"/>
<path d="M0 0 C6.6 0 13.2 0 20 0 C20 6.6 20 13.2 20 20 C13.4 20 6.8 20 0 20 C0 13.4 0 6.8 0 0 Z " fill="#F4A218" transform="translate(400,340)"/>
<path d="M0 0 C6.6 0 13.2 0 20 0 C20 6.6 20 13.2 20 20 C13.4 20 6.8 20 0 20 C0 13.4 0 6.8 0 0 Z " fill="#F4A218" transform="translate(540,320)"/>
<path d="M0 0 C6.6 0 13.2 0 20 0 C20 6.6 20 13.2 20 20 C13.4 20 6.8 20 0 20 C0 13.4 0 6.8 0 0 Z " fill="#76500C" transform="translate(520,320)"/>
<path d="M0 0 C6.6 0 13.2 0 20 0 C20 6.6 20 13.2 20 20 C13.4 20 6.8 20 0 20 C0 13.4 0 6.8 0 0 Z " fill="#3A2606" transform="translate(440,320)"/>
<path d="M0 0 C6.6 0 13.2 0 20 0 C20 6.6 20 13.2 20 20 C13.4 20 6.8 20 0 20 C0 13.4 0 6.8 0 0 Z " fill="#F4A218" transform="translate(420,320)"/>
<path d="M0 0 C6.6 0 13.2 0 20 0 C20 6.6 20 13.2 20 20 C13.4 20 6.8 20 0 20 C0 13.4 0 6.8 0 0 Z " fill="#76500C" transform="translate(400,320)"/>
<path d="M0 0 C9.9 0 19.8 0 30 0 C30 3.3 30 6.6 30 10 C23.4 10 16.8 10 10 10 C10 13.3 10 16.6 10 20 C6.7 20 3.4 20 0 20 C0 13.4 0 6.8 0 0 Z " fill="#FAC388" transform="translate(250,150)"/>
<path d="M0 0 C3.3 0 6.6 0 10 0 C10 6.6 10 13.2 10 20 C3.4 20 -3.2 20 -10 20 C-10 16.7 -10 13.4 -10 10 C-6.7 10 -3.4 10 0 10 C0 6.7 0 3.4 0 0 Z " fill="#784006" transform="translate(810,770)"/>
<path d="M0 0 C3.3 0 6.6 0 10 0 C10 6.6 10 13.2 10 20 C3.4 20 -3.2 20 -10 20 C-10 16.7 -10 13.4 -10 10 C-6.7 10 -3.4 10 0 10 C0 6.7 0 3.4 0 0 Z " fill="#784007" transform="translate(850,730)"/>
<path d="M0 0 C3.3 0 6.6 0 10 0 C10 6.6 10 13.2 10 20 C3.4 20 -3.2 20 -10 20 C-10 16.7 -10 13.4 -10 10 C-6.7 10 -3.4 10 0 10 C0 6.7 0 3.4 0 0 Z " fill="#784006" transform="translate(890,660)"/>
<path d="M0 0 C3.3 0 6.6 0 10 0 C10 9.9 10 19.8 10 30 C6.7 30 3.4 30 0 30 C0 20.1 0 10.2 0 0 Z " fill="#FEC846" transform="translate(680,400)"/>
<path d="M0 0 C6.6 0 13.2 0 20 0 C20 3.3 20 6.6 20 10 C16.7 10 13.4 10 10 10 C10 13.3 10 16.6 10 20 C6.7 20 3.4 20 0 20 C0 13.4 0 6.8 0 0 Z " fill="#FAC388" transform="translate(360,70)"/>
<path d="M0 0 C3.3 0 6.6 0 10 0 C10 6.6 10 13.2 10 20 C6.7 20 3.4 20 0 20 C0 13.4 0 6.8 0 0 Z " fill="#F6BE5E" transform="translate(170,220)"/>
<path d="M0 0 C3.3 0 6.6 0 10 0 C10 3.3 10 6.6 10 10 C6.7 10 3.4 10 0 10 C0 6.7 0 3.4 0 0 Z " fill="#FAC588" transform="translate(100,300)"/>
</svg>
